# xmcd
#
# Track frame offsets:
# 150
# 49174
# 98198
# 147222
#
# Disc length: 2616 seconds
#
# Revision: 0
# Processed by: cddbd v1.5.2PL0 Copyright (c) Steve Scherf et al.
# Submitted via: Audion 3.0.2 (http://www.panic.com/audion/)
#
DISCID=310a3604
DTITLE=David Adelson - Awaken To Letting Go
DYEAR=1900
DGENRE=
TTITLE0=Letting Go 1
TTITLE1=Letting Go More 2
TTITLE2=Letting Go All 3
TTITLE3=Now Receive
EXTD=
EXTT0=
EXTT1=
EXTT2=
EXTT3=
PLAYORDER=
